<svg width="18" height="12" viewBox="0 0 18 12" fill="none" xmlns="http://www.w3.org/2000/svg">
<path d="M9.80387 11.5C3.65397 11.5 0.146159 7.37087 0 0.5H3.08057C3.18176 5.54304 5.45284 7.67918 7.25172 8.11962V0.5H10.1524V4.84935C11.9288 4.66216 13.7951 2.68018 14.4247 0.5H17.3254C17.0882 1.6307 16.6152 2.7013 15.9362 3.64482C15.2572 4.58835 14.3867 5.3845 13.3791 5.98348C14.5038 6.53079 15.4972 7.30546 16.2937 8.25637C17.0902 9.20728 17.6718 10.3128 18 11.5H14.807C14.5124 10.4688 13.9135 9.54578 13.0855 8.84651C12.2575 8.14723 11.2372 7.70286 10.1524 7.56907V11.5H9.80387Z" fill="#000000"/>
</svg>
